<svg width="337" height="248" viewBox="0 0 337 248" fill="none" xmlns="http://www.w3.org/2000/svg">
<path d="M157.08 66C157.08 25.11 111.26 0 78.4 0C56.4 0 42.67 10.78 42.67 28.13V39.2H33.42C17.18 39.2 3.86407e-05 56.45 3.86407e-05 72.75V196.91C-0.00390592 198.442 0.294191 199.959 0.877266 201.375C1.46034 202.791 2.31696 204.079 3.39809 205.164C4.47923 206.249 5.76366 207.11 7.17791 207.697C8.59216 208.285 10.1085 208.589 11.64 208.59H41.8C41.98 208.59 42.15 208.59 42.33 208.59C45.3166 208.456 48.137 207.178 50.2057 205.02C52.2745 202.861 53.4327 199.99 53.44 197C53.44 197 53.44 77.11 53.44 50.06H78.55C85.2063 50.0679 91.5874 52.7163 96.2932 57.4239C100.999 62.1315 103.645 68.5138 103.65 75.17V196.91C103.646 198.443 103.945 199.962 104.529 201.38C105.113 202.797 105.972 204.086 107.055 205.171C108.138 206.256 109.425 207.116 110.842 207.703C112.258 208.29 113.777 208.591 115.31 208.59H145.49C148.576 208.587 151.535 207.36 153.718 205.178C155.9 202.995 157.127 200.036 157.13 196.95C157.14 142.78 157.08 66 157.08 66ZM13.63 197.78C12.8733 197.78 12.1473 197.48 11.6112 196.946C11.0752 196.412 10.7727 195.687 10.77 194.93V72.75C10.77 62.53 23.26 49.97 33.42 49.97H42.67C42.67 139.46 42.67 185.25 42.67 194.97C42.6648 195.726 42.3615 196.449 41.826 196.983C41.2904 197.517 40.566 197.817 39.81 197.82L13.63 197.78ZM146.36 194.95C146.36 195.323 146.286 195.693 146.143 196.038C145.999 196.382 145.789 196.695 145.524 196.958C145.259 197.221 144.945 197.429 144.599 197.57C144.254 197.711 143.883 197.783 143.51 197.78H117.29C116.535 197.777 115.812 197.476 115.278 196.942C114.744 196.408 114.443 195.685 114.44 194.93V75.07C114.44 70.3578 113.512 65.6918 111.708 61.3385C109.904 56.9853 107.26 53.0301 103.927 49.699C100.594 46.3679 96.6373 43.7262 92.283 41.9247C87.9288 40.1232 83.2622 39.1974 78.55 39.2H53.44V28.06C53.44 21.6 56.68 10.77 78.44 10.77C120.52 10.77 146.35 42.94 146.35 66C146.31 66 146.37 140.96 146.36 194.95ZM324.63 38.95H294.48C291.394 38.9526 288.435 40.1798 286.252 42.3622C284.07 44.5445 282.843 47.5037 282.84 50.59V197.59H257.71C251.056 197.582 244.676 194.935 239.97 190.23C235.265 185.524 232.618 179.144 232.61 172.49V50.59C232.607 47.5037 231.38 44.5445 229.198 42.3622C227.015 40.1798 224.056 38.9526 220.97 38.95H190.79C187.703 38.9526 184.743 40.1795 182.559 42.3616C180.375 44.5437 179.145 47.5028 179.14 50.59C179.14 103.72 179.19 181.51 179.19 181.51C179.19 222.4 225.02 247.51 257.88 247.51C279.88 247.51 293.6 236.73 293.6 219.38V208.33H302.85C319.09 208.33 336.27 191.09 336.27 174.79V50.59C336.257 47.5097 335.025 44.5598 332.844 42.3845C330.663 40.2092 327.71 38.9853 324.63 38.98V38.95ZM282.83 219.44C282.83 225.9 279.59 236.73 257.88 236.73C215.8 236.73 189.96 204.57 189.96 181.51C189.96 181.51 189.91 106.92 189.91 52.51C189.911 52.1362 189.986 51.7663 190.131 51.4216C190.276 51.0769 190.487 50.7641 190.752 50.5012C191.018 50.2383 191.333 50.0304 191.679 49.8895C192.026 49.7485 192.396 49.6774 192.77 49.68H218.98C219.739 49.68 220.466 49.9813 221.002 50.5177C221.539 51.054 221.84 51.7815 221.84 52.54V172.46C221.84 181.973 225.619 191.097 232.346 197.824C239.073 204.551 248.197 208.33 257.71 208.33H282.84L282.83 219.44ZM325.55 174.79C325.55 185 313.06 197.56 302.9 197.56H293.65C293.65 135.06 293.65 65.01 293.65 52.56C293.651 52.1875 293.726 51.8189 293.87 51.4754C294.014 51.1319 294.225 50.8203 294.49 50.5583C294.754 50.2963 295.068 50.0891 295.413 49.9487C295.758 49.8083 296.128 49.7374 296.5 49.74H322.65C323.028 49.736 323.403 49.8067 323.753 49.9479C324.103 50.0891 324.422 50.2981 324.692 50.5629C324.961 50.8276 325.176 51.143 325.323 51.4909C325.47 51.8387 325.547 52.2123 325.55 52.59V174.79Z" fill="#F5F5F5"/>
</svg>
